<?xml version="1.0" standalone="no"?>
<!DOCTYPE svg PUBLIC "-//W3C//DTD SVG 20010904//EN"
 "http://www.w3.org/TR/2001/REC-SVG-20010904/DTD/svg10.dtd">
<svg version="1.0" xmlns="http://www.w3.org/2000/svg"
 width="53.000000pt" height="53.000000pt" viewBox="0 0 53.000000 53.000000"
 preserveAspectRatio="xMidYMid meet">

<g transform="translate(0.000000,53.000000) scale(0.100000,-0.100000)"
fill="#000000" stroke="none">
<path d="M355 501 c-83 -23 -102 -32 -115 -54 -12 -21 -22 -27 -50 -27 -31 0
-46 -10 -113 -78 l-77 -77 78 -78 c67 -66 82 -77 112 -77 28 0 38 -6 51 -28
14 -25 29 -32 120 -55 57 -14 105 -24 108 -22 2 2 16 48 31 102 25 90 26 100
12 127 -13 27 -13 33 2 60 15 30 15 36 -12 130 -16 55 -33 101 -38 102 -5 1
-54 -10 -109 -25z m32 -58 c-2 -5 -23 -41 -47 -80 l-42 -73 -89 0 c-49 0 -89
4 -89 8 0 4 24 31 53 59 43 43 64 55 122 71 79 22 98 25 92 15z m78 -107 l21
-72 -24 -78 -24 -79 -44 74 c-24 41 -44 78 -44 83 0 14 84 155 90 150 2 -3 14
-38 25 -78z m-120 -172 c25 -42 44 -78 42 -80 -2 -2 -36 5 -76 17 -59 16 -85
30 -132 71 -33 28 -59 55 -59 59 0 5 40 9 89 9 l90 0 46 -76z"/>
</g>
</svg>
