<?xml version="1.0" standalone="no"?>
<!DOCTYPE svg PUBLIC "-//W3C//DTD SVG 20010904//EN"
 "http://www.w3.org/TR/2001/REC-SVG-20010904/DTD/svg10.dtd">
<svg version="1.0" xmlns="http://www.w3.org/2000/svg"
 width="53.000000pt" height="53.000000pt" viewBox="0 0 53.000000 53.000000"
 preserveAspectRatio="xMidYMid meet">

<g transform="translate(0.000000,53.000000) scale(0.100000,-0.100000)"
fill="#000000" stroke="none">
<path d="M281 366 l-64 -65 -43 31 c-65 47 -75 37 -72 -69 4 -103 15 -113 75
-64 l38 31 66 -66 66 -65 41 17 42 16 0 133 0 133 -40 16 c-22 9 -42 16 -43
16 -1 0 -31 -29 -66 -64z m69 -101 c0 -72 -2 -73 -60 -24 l-25 21 39 34 c22
19 41 34 43 34 1 0 3 -29 3 -65z m-192 22 l22 -23 -25 -24 -25 -23 0 46 c0 26
1 47 3 47 2 0 13 -10 25 -23z"/>
</g>
</svg>
