<?xml version="1.0" standalone="no"?>
<!DOCTYPE svg PUBLIC "-//W3C//DTD SVG 20010904//EN"
 "http://www.w3.org/TR/2001/REC-SVG-20010904/DTD/svg10.dtd">
<svg version="1.0" xmlns="http://www.w3.org/2000/svg"
 width="53.000000pt" height="53.000000pt" viewBox="0 0 53.000000 53.000000"
 preserveAspectRatio="xMidYMid meet">

<g transform="translate(0.000000,53.000000) scale(0.100000,-0.100000)"
fill="#000000" stroke="none">
<path d="M171 513 c-26 -9 -65 -36 -91 -62 -106 -106 -106 -266 0 -371 105
-106 265 -106 370 0 200 199 -12 527 -279 433z m163 -35 c58 -18 128 -90 145
-150 29 -102 -18 -211 -111 -259 -92 -47 -185 -33 -258 40 -93 94 -93 218 0
311 65 65 136 84 224 58z"/>
<path d="M195 401 c-43 -27 -82 -70 -99 -113 -23 -55 -19 -66 9 -28 56 75 75
69 75 -25 0 -63 -3 -75 -16 -75 -28 0 3 -27 52 -46 44 -17 45 -17 68 5 19 18
28 21 43 12 16 -8 28 -5 56 15 20 13 41 34 47 45 11 20 10 20 -18 5 -16 -8
-32 -12 -36 -9 -3 4 -6 43 -6 87 0 58 5 88 16 104 20 29 2 30 -44 2 -18 -11
-37 -18 -43 -15 -5 4 -5 -5 1 -20 6 -15 10 -53 10 -86 0 -53 -3 -61 -22 -68
-41 -15 -48 -4 -48 76 0 41 -5 83 -11 94 -8 16 -7 25 7 40 23 26 0 26 -41 0z"/>
</g>
</svg>
