<?xml version="1.0" standalone="no"?>
<!DOCTYPE svg PUBLIC "-//W3C//DTD SVG 20010904//EN"
 "http://www.w3.org/TR/2001/REC-SVG-20010904/DTD/svg10.dtd">
<svg version="1.0" xmlns="http://www.w3.org/2000/svg"
 width="53.000000pt" height="53.000000pt" viewBox="0 0 53.000000 53.000000"
 preserveAspectRatio="xMidYMid meet">

<g transform="translate(0.000000,53.000000) scale(0.100000,-0.100000)"
fill="#000000" stroke="none">
<path d="M254 448 c-4 -7 6 -23 26 -40 l34 -28 -95 0 c-67 0 -101 -4 -115 -14
-28 -21 -9 -34 54 -38 l53 -3 -96 -73 c-98 -75 -115 -103 -67 -110 15 -2 38
10 70 37 l47 41 8 -33 c5 -17 21 -45 35 -61 102 -110 296 -48 296 94 0 63 -17
86 -122 170 -86 69 -114 81 -128 58z m125 -129 c33 -12 61 -52 61 -89 0 -80
-114 -117 -176 -59 -42 40 -29 115 24 143 33 18 50 19 91 5z"/>
<path d="M313 290 c-44 -18 -50 -75 -9 -102 17 -12 61 -9 78 5 55 43 -2 123
-69 97z"/>
</g>
</svg>
